<svg width="9" height="12" viewBox="0 0 9 12" fill="none" xmlns="http://www.w3.org/2000/svg">
<path opacity="0.9" d="M0.0023431 4.39456C0.0023431 1.9666 2.01744 0 4.50117 0C6.9849 0 9 1.9666 9 4.39456C9 7.17437 6.18355 10.5064 5.00729 11.7763C4.7308 12.0746 4.2692 12.0746 3.99271 11.7763C2.81645 10.5064 0 7.17437 0 4.39456H0.0023431ZM4.50117 5.96505C5.3283 5.96505 6.00078 5.29631 6.00078 4.47379C6.00078 3.65126 5.3283 2.98252 4.50117 2.98252C3.67404 2.98252 3.00156 3.65126 3.00156 4.47379C3.00156 5.29631 3.67404 5.96505 4.50117 5.96505Z" fill="black"/>
</svg>
