<svg width="9" height="9" viewBox="0 0 9 9" fill="none" xmlns="http://www.w3.org/2000/svg">
<path d="M8.15625 4.5C8.15625 5.4697 7.77104 6.39968 7.08536 7.08536C6.39968 7.77104 5.4697 8.15625 4.5 8.15625C3.5303 8.15625 2.60032 7.77104 1.91464 7.08536C1.22896 6.39968 0.84375 5.4697 0.84375 4.5C0.84375 3.5303 1.22896 2.60032 1.91464 1.91464C2.60032 1.22896 3.5303 0.84375 4.5 0.84375C5.4697 0.84375 6.39968 1.22896 7.08536 1.91464C7.77104 2.60032 8.15625 3.5303 8.15625 4.5ZM0 4.5C0 5.69347 0.474106 6.83807 1.31802 7.68198C2.16193 8.52589 3.30653 9 4.5 9C5.69347 9 6.83807 8.52589 7.68198 7.68198C8.52589 6.83807 9 5.69347 9 4.5C9 3.30653 8.52589 2.16193 7.68198 1.31802C6.83807 0.474106 5.69347 0 4.5 0C3.30653 0 2.16193 0.474106 1.31802 1.31802C0.474106 2.16193 0 3.30653 0 4.5ZM4.07812 2.10938V4.5C4.07812 4.64062 4.14844 4.77246 4.26621 4.85156L5.95371 5.97656C6.14707 6.10664 6.40898 6.05391 6.53906 5.85879C6.66914 5.66367 6.61641 5.40352 6.42129 5.27344L4.92188 4.275V2.10938C4.92188 1.87559 4.73379 1.6875 4.5 1.6875C4.26621 1.6875 4.07812 1.87559 4.07812 2.10938Z" fill="black"/>
</svg>
