<svg width="40" height="40" viewBox="0 0 40 40" fill="none" xmlns="http://www.w3.org/2000/svg">
<path d="M36.25 20C36.25 11.0234 28.9766 3.75 20 3.75C11.0234 3.75 3.75 11.0234 3.75 20C3.75 28.9766 11.0234 36.25 20 36.25C28.9766 36.25 36.25 28.9766 36.25 20ZM0 20C0 8.95313 8.95313 0 20 0C31.0469 0 40 8.95313 40 20C40 31.0469 31.0469 40 20 40C8.95313 40 0 31.0469 0 20ZM20 13.75C18.6172 13.75 17.5 14.8672 17.5 16.25C17.5 17.2891 16.6641 18.125 15.625 18.125C14.5859 18.125 13.75 17.2891 13.75 16.25C13.75 12.7969 16.5469 10 20 10C23.4531 10 26.25 12.7969 26.25 16.25C26.25 19.9375 23.4375 21.5 21.875 22.0703V22.3672C21.875 23.4062 21.0391 24.2422 20 24.2422C18.9609 24.2422 18.125 23.4062 18.125 22.3672V21.7344C18.125 20.1328 19.2813 18.9844 20.4766 18.5938C20.9766 18.4297 21.5078 18.1641 21.8984 17.7891C22.2344 17.4609 22.5 17.0078 22.5 16.2578C22.5 14.875 21.3828 13.7578 20 13.7578V13.75ZM17.5 28.75C17.5 27.3672 18.6172 26.25 20 26.25C21.3828 26.25 22.5 27.3672 22.5 28.75C22.5 30.1328 21.3828 31.25 20 31.25C18.6172 31.25 17.5 30.1328 17.5 28.75Z" fill="#005EF9"/>
</svg>
