<svg width="21" height="20" viewBox="0 0 21 20" fill="none" xmlns="http://www.w3.org/2000/svg">
<path d="M11.3203 0.498475C11.1638 0.194063 10.847 0 10.5035 0C10.16 0 9.84314 0.194063 9.68665 0.498475L6.87734 5.98551L0.773963 6.95201C0.434251 7.00529 0.151793 7.24501 0.0449172 7.57225C-0.0619586 7.8995 0.0258324 8.25718 0.266303 8.50071L4.63295 12.8576L3.67106 18.9421C3.61763 19.2807 3.75885 19.6232 4.03749 19.8248C4.31614 20.0265 4.68257 20.057 4.99174 19.901L10.5035 17.108L16.0114 19.901C16.3168 20.057 16.687 20.0265 16.9657 19.8248C17.2443 19.6232 17.3855 19.2845 17.3321 18.9421L16.3664 12.8576L20.733 8.50071C20.9773 8.25718 21.0613 7.8995 20.9544 7.57225C20.8475 7.24501 20.5689 7.00529 20.2254 6.95201L14.1258 5.98551L11.3203 0.498475Z" fill="#FFD43B"/>
</svg>
